<svg width="512" height="512" version="1.1" xmlns="http://www.w3.org/2000/svg" desc="Created with imagetracer.js version 1.2.6" ><path fill="rgb(0,0,0)" stroke="rgb(0,0,0)" stroke-width="1" opacity="0" d="M 0 0 L 512 0 L 512 512 L 0 512 L 0 0 Z M 405 171 Q 381 175 367 188 Q 344 206 338 241 L 338 268 L 340 278 Q 345 295 355 307 Q 370 327 401 332 L 427 332 L 437 330 Q 451 325 462 316 Q 473 306 479 291 L 473 290 L 466 301 L 450 315 L 438 320 L 427 321 L 426 322 L 412 321 L 404 319 Q 392 315 385 308 Q 376 300 371 289 L 367 276 L 366 263 L 365 262 L 365 246 L 366 245 L 366 236 L 369 221 Q 373 206 382 196 Q 389 188 400 183 L 418 179 Q 437 179 449 188 Q 464 200 470 221 L 470 223 L 476 223 L 475 221 L 475 207 L 474 206 L 474 193 L 473 192 L 473 178 L 472 177 L 472 171 L 466 171 L 464 178 L 458 182 Q 447 175 434 172 L 429 171 L 405 171 Z M 30 174 L 30 179 Q 39 178 45 181 L 49 186 L 51 194 L 51 309 L 48 319 L 45 322 L 38 324 L 28 324 L 28 329 L 111 329 L 125 326 L 138 319 Q 150 310 153 292 Q 155 272 146 263 Q 139 253 127 248 L 105 244 L 74 244 L 74 183 L 113 183 L 127 187 Q 134 193 137 205 L 137 208 L 143 208 L 143 195 L 142 194 L 142 175 L 142 174 L 30 174 Z M 163 174 L 163 179 Q 173 178 180 181 L 184 186 L 186 194 L 186 310 L 184 318 L 180 322 L 173 324 L 163 324 L 163 329 L 232 329 L 232 324 Q 219 326 212 320 L 210 316 L 210 304 L 278 217 L 280 216 L 280 311 L 278 318 L 274 322 L 267 324 L 257 324 L 257 329 L 326 329 L 326 324 L 318 324 L 309 321 L 304 312 L 304 192 L 307 184 L 318 179 L 326 179 L 326 174 L 258 174 L 257 179 Q 269 177 276 182 L 280 192 Q 282 200 278 203 L 212 287 L 210 288 L 210 191 L 213 184 Q 219 177 232 179 L 232 174 L 163 174 Z " /><path fill="rgb(0,0,0)" stroke="rgb(0,0,0)" stroke-width="1" opacity="0" d="M 77.5 253 L 98.5 254 Q 111.3 257.2 119 265.5 L 125 277.5 L 126 287.5 L 124 298.5 L 117 310 L 108.5 316 L 99.5 320 L 82.5 321 L 81.5 320 L 74 320 L 74 254.5 L 76.5 254 L 77.5 253 Z " /><path fill="rgb(106,161,217)" stroke="rgb(106,161,217)" stroke-width="1" opacity="0.5215686274509804" d="M 404.5 171 L 409 171.5 L 404.5 172 L 404.5 171 Z " /><path fill="rgb(106,161,217)" stroke="rgb(106,161,217)" stroke-width="1" opacity="0.5215686274509804" d="M 425.5 171 L 429 171.5 L 425.5 172 L 425.5 171 Z " /><path fill="rgb(106,161,217)" stroke="rgb(106,161,217)" stroke-width="1" opacity="0.5215686274509804" d="M 466.5 171 L 467 173.5 Q 465.6 179.6 460.5 182 L 458 181.5 L 464 177.5 L 466.5 171 Z " /><path fill="rgb(106,161,217)" stroke="rgb(106,161,217)" stroke-width="1" opacity="0.5215686274509804" d="M 471.5 171 L 472 174.5 L 471 174.5 L 471.5 171 Z " /><path fill="rgb(106,161,217)" stroke="rgb(106,161,217)" stroke-width="1" opacity="0.5215686274509804" d="M 399.5 172 L 402 172.5 L 399.5 173 L 399.5 172 Z " /><path fill="rgb(106,161,217)" stroke="rgb(106,161,217)" stroke-width="1" opacity="0.5215686274509804" d="M 431.5 172 L 434 172.5 L 431.5 173 L 431.5 172 Z " /><path fill="rgb(106,161,217)" stroke="rgb(106,161,217)" stroke-width="1" opacity="0.5215686274509804" d="M 395.5 173 L 398 173.5 L 395.5 174 L 395.5 173 Z " /><path fill="rgb(106,161,217)" stroke="rgb(106,161,217)" stroke-width="1" opacity="0.5215686274509804" d="M 435.5 173 L 438 173.5 L 435.5 174 L 435.5 173 Z " /><path fill="rgb(106,161,217)" stroke="rgb(106,161,217)" stroke-width="1" opacity="0.5215686274509804" d="M 30.5 174 L 31 178 L 35 178.5 L 30 179 L 30.5 174 Z " /><path fill="rgb(106,161,217)" stroke="rgb(106,161,217)" stroke-width="1" opacity="0.5215686274509804" d="M 141.5 174 L 142 190.5 L 141 190.5 L 141.5 174 Z " /><path fill="rgb(106,161,217)" stroke="rgb(106,161,217)" stroke-width="1" opacity="0.5215686274509804" d="M 163.5 174 L 164 178 L 170 178.5 L 163 179 L 163.5 174 Z " /><path fill="rgb(106,161,217)" stroke="rgb(106,161,217)" stroke-width="1" opacity="0.5215686274509804" d="M 231.5 174 L 232 179 L 226 178.5 L 231 178 L 231.5 174 Z " /><path fill="rgb(106,161,217)" stroke="rgb(106,161,217)" stroke-width="1" opacity="0.5215686274509804" d="M 257.5 174 L 258 178 L 266 178.5 L 257 179 L 257.5 174 Z " /><path fill="rgb(106,161,217)" stroke="rgb(106,161,217)" stroke-width="1" opacity="0.5215686274509804" d="M 325.5 174 L 326 179 L 320 178.5 L 325 178 L 325.5 174 Z " /><path fill="rgb(106,161,217)" stroke="rgb(106,161,217)" stroke-width="1" opacity="0.5215686274509804" d="M 442.5 175 L 446 176.5 L 444.5 177 L 442.5 175 Z " /><path fill="rgb(106,161,217)" stroke="rgb(106,161,217)" stroke-width="1" opacity="0.5215686274509804" d="M 386.5 176 L 388 176.5 Q 369.8 183.8 358 197.5 Q 349.2 207.7 344 221.5 Q 338.8 233.3 338.5 250 L 338 240.5 Q 344 206 366.5 188 L 386.5 176 Z " /><path fill="rgb(106,161,217)" stroke="rgb(106,161,217)" stroke-width="1" opacity="0.5215686274509804" d="M 472.5 177 L 473 189.5 L 472 189.5 L 472.5 177 Z " /><path fill="rgb(106,161,217)" stroke="rgb(106,161,217)" stroke-width="1" opacity="0.5215686274509804" d="M 39.5 179 L 42 179.5 L 39.5 180 L 39.5 179 Z " /><path fill="rgb(106,161,217)" stroke="rgb(106,161,217)" stroke-width="1" opacity="0.5215686274509804" d="M 173.5 179 L 176 179.5 L 173.5 180 L 173.5 179 Z " /><path fill="rgb(106,161,217)" stroke="rgb(106,161,217)" stroke-width="1" opacity="0.5215686274509804" d="M 219.5 179 L 222 179.5 L 219.5 180 L 219.5 179 Z " /><path fill="rgb(106,161,217)" stroke="rgb(106,161,217)" stroke-width="1" opacity="0.5215686274509804" d="M 269.5 179 Q 276.1 179.9 279 184.5 L 281 191.5 L 281 199.5 L 209.5 291 L 209 190.5 Q 209.9 183.9 214.5 181 L 217.5 180 L 217.5 181 L 213 183.5 L 210 190.5 L 210 287.5 L 212 286.5 L 278 202.5 Q 281.6 199.6 280 191.5 L 275.5 182 L 269.5 180 L 269.5 179 Z " /><path fill="rgb(106,161,217)" stroke="rgb(106,161,217)" stroke-width="1" opacity="0.5215686274509804" d="M 314.5 179 L 317 179.5 L 314.5 180 L 314.5 179 Z " /><path fill="rgb(106,161,217)" stroke="rgb(106,161,217)" stroke-width="1" opacity="0.5215686274509804" d="M 411.5 179 L 417 179.5 L 411.5 180 L 411.5 179 Z " /><path fill="rgb(106,161,217)" stroke="rgb(106,161,217)" stroke-width="1" opacity="0.5215686274509804" d="M 422.5 179 L 428 179.5 L 422.5 180 L 422.5 179 Z " /><path fill="rgb(106,161,217)" stroke="rgb(106,161,217)" stroke-width="1" opacity="0.5215686274509804" d="M 43.5 180 L 48 182 L 51 188.5 L 51 192.5 L 50 192.5 Q 50.4 183.6 44.5 181 L 43.5 180 Z " /><path fill="rgb(106,161,217)" stroke="rgb(106,161,217)" stroke-width="1" opacity="0.5215686274509804" d="M 310.5 180 L 313 180.5 L 307 183.5 L 304.5 191 L 304 187.5 L 308.5 181 L 310.5 180 Z " /><path fill="rgb(106,161,217)" stroke="rgb(106,161,217)" stroke-width="1" opacity="0.5215686274509804" d="M 406.5 180 L 409 180.5 L 406.5 181 L 406.5 180 Z " /><path fill="rgb(106,161,217)" stroke="rgb(106,161,217)" stroke-width="1" opacity="0.5215686274509804" d="M 430.5 180 L 433 180.5 L 430.5 181 L 430.5 180 Z " /><path fill="rgb(106,161,217)" stroke="rgb(106,161,217)" stroke-width="1" opacity="0.5215686274509804" d="M 453.5 180 L 457 181.5 L 455.5 182 L 453.5 180 Z " /><path fill="rgb(106,161,217)" stroke="rgb(106,161,217)" stroke-width="1" opacity="0.5215686274509804" d="M 180.5 181 L 183 182 L 186 188.5 L 186 192.5 L 185 192.5 L 184 185.5 L 180.5 181 Z " /><path fill="rgb(106,161,217)" stroke="rgb(106,161,217)" stroke-width="1" opacity="0.5215686274509804" d="M 402.5 181 L 405 181.5 L 400.5 183 L 400.5 182 L 402.5 181 Z " /><path fill="rgb(106,161,217)" stroke="rgb(106,161,217)" stroke-width="1" opacity="0.5215686274509804" d="M 434.5 181 L 439 182.5 L 437.5 183 L 434.5 182 L 434.5 181 Z " /><path fill="rgb(106,161,217)" stroke="rgb(106,161,217)" stroke-width="1" opacity="0.5215686274509804" d="M 74.5 182 L 106 182.5 L 74.5 183 L 74.5 182 Z " /><path fill="rgb(106,161,217)" stroke="rgb(106,161,217)" stroke-width="1" opacity="0.5215686274509804" d="M 113.5 183 L 117 183.5 L 113.5 184 L 113.5 183 Z " /><path fill="rgb(106,161,217)" stroke="rgb(106,161,217)" stroke-width="1" opacity="0.5215686274509804" d="M 397.5 183 L 399 183.5 Q 388.7 187.7 382 195.5 Q 366.7 213.2 365.5 245 L 365 235.5 L 368 220.5 L 372 209.5 Q 377.6 197.1 387.5 189 L 397.5 183 Z " /><path fill="rgb(106,161,217)" stroke="rgb(106,161,217)" stroke-width="1" opacity="0.5215686274509804" d="M 440.5 183 Q 451.3 187.2 458 195.5 L 469 214.5 L 471 222.5 L 470 222.5 Q 464.5 200 448.5 188 L 440.5 184 L 440.5 183 Z " /><path fill="rgb(106,161,217)" stroke="rgb(106,161,217)" stroke-width="1" opacity="0.5215686274509804" d="M 127.5 187 Q 136.6 193.4 138 207.5 L 137 207.5 L 135 198.5 L 127.5 187 Z " /><path fill="rgb(106,161,217)" stroke="rgb(106,161,217)" stroke-width="1" opacity="0.5215686274509804" d="M 303.5 192 L 304 310.5 L 303 310.5 L 303.5 192 Z " /><path fill="rgb(106,161,217)" stroke="rgb(106,161,217)" stroke-width="1" opacity="0.5215686274509804" d="M 473.5 192 L 474 203.5 L 473 203.5 L 473.5 192 Z " /><path fill="rgb(106,161,217)" stroke="rgb(106,161,217)" stroke-width="1" opacity="0.5215686274509804" d="M 142.5 194 L 143 207.5 L 142 207.5 L 142.5 194 Z " /><path fill="rgb(106,161,217)" stroke="rgb(106,161,217)" stroke-width="1" opacity="0.5215686274509804" d="M 186.5 194 L 187 308.5 L 186 308.5 L 186.5 194 Z " /><path fill="rgb(106,161,217)" stroke="rgb(106,161,217)" stroke-width="1" opacity="0.5215686274509804" d="M 51.5 195 L 52 306.5 L 51 306.5 L 51.5 195 Z " /><path fill="rgb(106,161,217)" stroke="rgb(106,161,217)" stroke-width="1" opacity="0.5215686274509804" d="M 474.5 206 L 475 218.5 L 474 218.5 L 474.5 206 Z " /><path fill="rgb(106,161,217)" stroke="rgb(106,161,217)" stroke-width="1" opacity="0.5215686274509804" d="M 280.5 212 L 281 310.5 L 280 315.5 L 276.5 321 L 274.5 322 L 278 317.5 L 280 310.5 L 280 215.5 L 278 216.5 L 210 303.5 L 210 315.5 L 212 320 L 217 322.5 L 215.5 323 L 211 319.5 Q 207 314.5 209 303.5 L 280.5 212 Z " /><path fill="rgb(106,161,217)" stroke="rgb(106,161,217)" stroke-width="1" opacity="0.5215686274509804" d="M 98.5 244 L 105 244.5 L 98.5 245 L 98.5 244 Z " /><path fill="rgb(106,161,217)" stroke="rgb(106,161,217)" stroke-width="1" opacity="0.5215686274509804" d="M 110.5 245 L 114 245.5 L 110.5 246 L 110.5 245 Z " /><path fill="rgb(106,161,217)" stroke="rgb(106,161,217)" stroke-width="1" opacity="0.5215686274509804" d="M 116.5 246 L 120 246.5 L 116.5 247 L 116.5 246 Z " /><path fill="rgb(106,161,217)" stroke="rgb(106,161,217)" stroke-width="1" opacity="0.5215686274509804" d="M 121.5 247 L 129 249.5 L 127.5 250 L 121.5 248 L 121.5 247 Z " /><path fill="rgb(106,161,217)" stroke="rgb(106,161,217)" stroke-width="1" opacity="0.5215686274509804" d="M 364.5 248 L 365 258.5 L 364 258.5 L 364.5 248 Z " /><path fill="rgb(106,161,217)" stroke="rgb(106,161,217)" stroke-width="1" opacity="0.5215686274509804" d="M 132.5 251 L 146 262.5 Q 154.5 272 153 291.5 L 152 291.5 L 151 274.5 Q 147 262 137.5 255 Q 132.9 253.8 132.5 251 Z " /><path fill="rgb(106,161,217)" stroke="rgb(106,161,217)" stroke-width="1" opacity="0.5215686274509804" d="M 80.5 252 L 89 252.5 L 80.5 253 L 80.5 252 Z " /><path fill="rgb(106,161,217)" stroke="rgb(106,161,217)" stroke-width="1" opacity="0.5215686274509804" d="M 74.5 253 L 77 253.5 L 74.5 254 L 74.5 253 Z " /><path fill="rgb(106,161,217)" stroke="rgb(106,161,217)" stroke-width="1" opacity="0.5215686274509804" d="M 93.5 253 L 97 253.5 L 93.5 254 L 93.5 253 Z " /><path fill="rgb(106,161,217)" stroke="rgb(106,161,217)" stroke-width="1" opacity="0.5215686274509804" d="M 105.5 256 Q 115.4 259.1 121 266.5 L 126 277.5 L 126 283.5 L 125 283.5 L 125 277.5 L 123 271.5 L 115.5 262 L 105.5 257 L 105.5 256 Z " /><path fill="rgb(106,161,217)" stroke="rgb(106,161,217)" stroke-width="1" opacity="0.5215686274509804" d="M 338.5 258 L 340 272.5 L 339 272.5 L 338.5 258 Z " /><path fill="rgb(106,161,217)" stroke="rgb(106,161,217)" stroke-width="1" opacity="0.5215686274509804" d="M 365.5 262 L 366 269.5 L 365 269.5 L 365.5 262 Z " /><path fill="rgb(106,161,217)" stroke="rgb(106,161,217)" stroke-width="1" opacity="0.5215686274509804" d="M 366.5 271 Q 369.9 295.1 384.5 308 L 398 316.5 L 396.5 317 Q 386 312 379 303.5 Q 367.8 291.2 366.5 271 Z " /><path fill="rgb(106,161,217)" stroke="rgb(106,161,217)" stroke-width="1" opacity="0.5215686274509804" d="M 340.5 274 Q 346.9 301.1 365.5 316 L 381 325.5 L 379.5 326 Q 364.6 318.9 355 306.5 L 343 286.5 L 340 277.5 L 340.5 274 Z " /><path fill="rgb(106,161,217)" stroke="rgb(106,161,217)" stroke-width="1" opacity="0.5215686274509804" d="M 125.5 288 L 126 294.5 Q 123 306.5 114.5 313 L 103.5 319 L 103.5 318 L 117 310 L 124 298.5 L 125.5 288 Z " /><path fill="rgb(106,161,217)" stroke="rgb(106,161,217)" stroke-width="1" opacity="0.5215686274509804" d="M 473 290 L 479 291 Q 473.5 306.1 461.5 316 Q 451 326 434.5 330 L 434.5 329 Q 444 327.5 450.5 323 Q 462.1 316.1 470 305.5 L 478 292.5 L 474.5 291 L 455.5 312 L 444.5 318 L 444.5 317 Q 457.8 311.3 466 300.5 L 473 290 Z " /><path fill="rgb(106,161,217)" stroke="rgb(106,161,217)" stroke-width="1" opacity="0.5215686274509804" d="M 151.5 293 L 152 296.5 Q 147.9 310.9 137.5 319 L 128.5 324 L 128.5 323 Q 136.8 319.8 142 313.5 L 149 302.5 L 151.5 293 Z " /><path fill="rgb(106,161,217)" stroke="rgb(106,161,217)" stroke-width="1" opacity="0.5215686274509804" d="M 50.5 309 L 51 313.5 L 50 317.5 L 45.5 322 L 48 318.5 L 50.5 309 Z " /><path fill="rgb(106,161,217)" stroke="rgb(106,161,217)" stroke-width="1" opacity="0.5215686274509804" d="M 185.5 310 L 186 314.5 L 183 321 L 180.5 322 L 184 317.5 L 185.5 310 Z " /><path fill="rgb(106,161,217)" stroke="rgb(106,161,217)" stroke-width="1" opacity="0.5215686274509804" d="M 304.5 312 Q 304.8 318.2 308.5 321 L 317 323.5 L 313.5 324 L 306 319.5 Q 303 316.8 304.5 312 Z " /><path fill="rgb(106,161,217)" stroke="rgb(106,161,217)" stroke-width="1" opacity="0.5215686274509804" d="M 399.5 317 L 403 318.5 L 401.5 319 L 399.5 317 Z " /><path fill="rgb(106,161,217)" stroke="rgb(106,161,217)" stroke-width="1" opacity="0.5215686274509804" d="M 441.5 318 L 443 318.5 L 438.5 320 L 438.5 319 L 441.5 318 Z " /><path fill="rgb(106,161,217)" stroke="rgb(106,161,217)" stroke-width="1" opacity="0.5215686274509804" d="M 404.5 319 L 407 319.5 L 404.5 320 L 404.5 319 Z " /><path fill="rgb(106,161,217)" stroke="rgb(106,161,217)" stroke-width="1" opacity="0.5215686274509804" d="M 77.5 320 L 82 320.5 L 77.5 321 L 77.5 320 Z " /><path fill="rgb(106,161,217)" stroke="rgb(106,161,217)" stroke-width="1" opacity="0.5215686274509804" d="M 95.5 320 L 98 320.5 L 95.5 321 L 95.5 320 Z " /><path fill="rgb(106,161,217)" stroke="rgb(106,161,217)" stroke-width="1" opacity="0.5215686274509804" d="M 408.5 320 L 411 320.5 L 408.5 321 L 408.5 320 Z " /><path fill="rgb(106,161,217)" stroke="rgb(106,161,217)" stroke-width="1" opacity="0.5215686274509804" d="M 434.5 320 L 437 320.5 L 434.5 321 L 434.5 320 Z " /><path fill="rgb(106,161,217)" stroke="rgb(106,161,217)" stroke-width="1" opacity="0.5215686274509804" d="M 414.5 321 L 420 321.5 L 414.5 322 L 414.5 321 Z " /><path fill="rgb(106,161,217)" stroke="rgb(106,161,217)" stroke-width="1" opacity="0.5215686274509804" d="M 426.5 321 L 432 321.5 L 426.5 322 L 426.5 321 Z " /><path fill="rgb(106,161,217)" stroke="rgb(106,161,217)" stroke-width="1" opacity="0.5215686274509804" d="M 38.5 323 L 41 323.5 L 38.5 324 L 38.5 323 Z " /><path fill="rgb(106,161,217)" stroke="rgb(106,161,217)" stroke-width="1" opacity="0.5215686274509804" d="M 173.5 323 L 176 323.5 L 173.5 324 L 173.5 323 Z " /><path fill="rgb(106,161,217)" stroke="rgb(106,161,217)" stroke-width="1" opacity="0.5215686274509804" d="M 218.5 323 L 221 323.5 L 218.5 324 L 218.5 323 Z " /><path fill="rgb(106,161,217)" stroke="rgb(106,161,217)" stroke-width="1" opacity="0.5215686274509804" d="M 267.5 323 L 270 323.5 L 267.5 324 L 267.5 323 Z " /><path fill="rgb(106,161,217)" stroke="rgb(106,161,217)" stroke-width="1" opacity="0.5215686274509804" d="M 28 324 L 35 324.5 L 29 325 L 28.5 329 L 28 324 Z " /><path fill="rgb(106,161,217)" stroke="rgb(106,161,217)" stroke-width="1" opacity="0.5215686274509804" d="M 125.5 324 L 127 324.5 L 122.5 326 L 122.5 325 L 125.5 324 Z " /><path fill="rgb(106,161,217)" stroke="rgb(106,161,217)" stroke-width="1" opacity="0.5215686274509804" d="M 163 324 L 170 324.5 L 164 325 L 163.5 329 L 163 324 Z " /><path fill="rgb(106,161,217)" stroke="rgb(106,161,217)" stroke-width="1" opacity="0.5215686274509804" d="M 224.5 324 L 232 324 L 232 328.5 L 231 328.5 L 231 325 L 224.5 325 L 224.5 324 Z " /><path fill="rgb(106,161,217)" stroke="rgb(106,161,217)" stroke-width="1" opacity="0.5215686274509804" d="M 257 324 L 264 324.5 L 258 325 L 257.5 329 L 257 324 Z " /><path fill="rgb(106,161,217)" stroke="rgb(106,161,217)" stroke-width="1" opacity="0.5215686274509804" d="M 320.5 324 Q 328.3 321.3 326 328.5 L 325 328.5 Q 326.8 322.8 320.5 325 L 320.5 324 Z " /><path fill="rgb(106,161,217)" stroke="rgb(106,161,217)" stroke-width="1" opacity="0.5215686274509804" d="M 382.5 326 L 386 327.5 L 384.5 328 L 382.5 326 Z " /><path fill="rgb(106,161,217)" stroke="rgb(106,161,217)" stroke-width="1" opacity="0.5215686274509804" d="M 114.5 327 L 117 327.5 L 114.5 328 L 114.5 327 Z " /><path fill="rgb(106,161,217)" stroke="rgb(106,161,217)" stroke-width="1" opacity="0.5215686274509804" d="M 106.5 328 L 111 328.5 L 106.5 329 L 106.5 328 Z " /><path fill="rgb(106,161,217)" stroke="rgb(106,161,217)" stroke-width="1" opacity="0.5215686274509804" d="M 390.5 329 L 393 329.5 L 390.5 330 L 390.5 329 Z " /><path fill="rgb(106,161,217)" stroke="rgb(106,161,217)" stroke-width="1" opacity="0.5215686274509804" d="M 394.5 330 L 398 330.5 L 394.5 331 L 394.5 330 Z " /><path fill="rgb(106,161,217)" stroke="rgb(106,161,217)" stroke-width="1" opacity="0.5215686274509804" d="M 430.5 330 L 433 330.5 L 430.5 331 L 430.5 330 Z " /><path fill="rgb(106,161,217)" stroke="rgb(106,161,217)" stroke-width="1" opacity="0.5215686274509804" d="M 400.5 331 L 405 331.5 L 400.5 332 L 400.5 331 Z " /><path fill="rgb(106,161,217)" stroke="rgb(106,161,217)" stroke-width="1" opacity="0.5215686274509804" d="M 423.5 331 L 427 331.5 L 423.5 332 L 423.5 331 Z " /><path fill="rgb(106,162,215)" stroke="rgb(106,162,215)" stroke-width="1" opacity="0.996078431372549" d="M 409.5 171 L 430.5 172 Q 445.1 174.9 455.5 182 L 460.5 182 Q 467 179.1 467 171 Q 472.6 168.8 471 174.5 L 472 175.5 L 474 218.5 L 475 223 Q 469.8 225.1 471 220.5 Q 465.4 201.6 452.5 190 L 436.5 181 L 427.5 179 L 411.5 179 Q 390.6 182.6 380 196.5 Q 371.9 206.4 368 220.5 L 365 235.5 L 364 258.5 L 365 259.5 L 366 275.5 L 370 288.5 Q 375.5 301.5 385.5 310 Q 393.3 316.7 404.5 320 L 414.5 322 L 431.5 322 Q 456.3 317.3 468 299.5 L 474.5 291 L 478 292.5 Q 470.1 308.6 456.5 319 Q 446.9 326.4 433.5 330 L 422.5 332 L 405.5 332 L 389.5 329 L 375.5 323 Q 364.8 316.8 357 307.5 Q 348.2 297.3 343 283.5 L 339 267.5 L 338 250.5 L 339 249.5 L 340 234.5 L 346 216.5 Q 353.4 200.9 365.5 190 Q 375.4 181.4 388.5 176 L 409.5 171 Z " /><path fill="rgb(106,162,215)" stroke="rgb(106,162,215)" stroke-width="1" opacity="0.996078431372549" d="M 31 174 L 140.5 174 L 141 174.5 L 141 190.5 L 142 191.5 L 142 208 Q 136.4 210.2 138 204.5 L 133 192.5 L 127.5 187 L 116.5 183 L 74 182 L 74 244 L 97.5 244 L 98.5 245 L 115.5 246 L 129.5 250 Q 138.9 254.6 145 262.5 L 151 274.5 L 152 292.5 Q 148.7 308.2 138.5 317 L 127.5 324 L 118.5 327 L 106.5 328 L 105.5 329 L 29 329 Q 26.7 322.6 34.5 325 L 43.5 323 L 50 317.5 L 52 306.5 L 52 195.5 Q 49.5 194 51 188.5 L 48 182 L 41.5 179 L 31 178 L 31 174 Z M 81 252 L 80 253 Q 74 252 74 254 L 74 320 L 78 321 L 98 321 Q 108 319 115 313 Q 123 306 126 295 Q 129 275 121 267 Q 116 259 107 256 L 97 253 L 81 252 Z " /><path fill="rgb(106,162,215)" stroke="rgb(106,162,215)" stroke-width="1" opacity="0.996078431372549" d="M 164 174 L 230.5 174 L 231 178 L 219.5 179 Q 213.8 180.3 211 184.5 L 209 190.5 L 209 290.5 L 210 290.5 L 280 201.5 Q 282.3 198.3 281 191.5 L 279 184.5 L 275.5 181 L 271.5 179 L 258 178 L 258.5 174 L 325 174 Q 327.3 180 320.5 178 L 310.5 180 L 306 183.5 L 303 192.5 L 303 310.5 L 304 315.5 L 308.5 322 L 313.5 324 L 325 325 L 324.5 329 L 258 329 Q 255.7 322.6 263.5 325 L 272.5 323 L 278 319.5 L 281 310.5 L 281 212.5 L 280 212.5 L 211 300.5 L 209 303.5 L 209 315.5 L 213.5 322 L 218.5 324 L 231 325 L 230.5 329 L 164 329 Q 161.7 322.6 169.5 325 L 183 321 L 185 317.5 L 187 308.5 L 187 194.5 L 185 185.5 L 183 182 L 175.5 179 L 164 178 L 164 174 Z " /></svg>